{
    "asset" : {
        "generator" : "Khronos glTF Blender I/O v1.3.48",
        "version" : "2.0"
    },
    "scene" : 0,
    "scenes" : [
        {
            "name" : "Scene",
            "nodes" : [
                0
            ]
        }
    ],
    "nodes" : [
        {
            "mesh" : 0,
            "name" : "AnyConv.com__DRILLBIT",
            "rotation" : [
                0.0037193673197180033,
                -0.44027459621429443,
                0.04586498439311981,
                0.8966832756996155
            ],
            "scale" : [
                0.43435364961624146,
                0.43435364961624146,
                0.4343537390232086
            ]
        }
    ],
    "materials" : [
        {
            "doubleSided" : true,
            "name" : "Default OBJ",
            "pbrMetallicRoughness" : {}
        }
    ],
    "meshes" : [
        {
            "name" : "AnyConv.com__DRILLBIT",
            "primitives" : [
                {
                    "attributes" : {
                        "POSITION" : 0,
                        "NORMAL" : 1
                    },
                    "indices" : 2,
                    "material" : 0
                }
            ]
        }
    ],
    "accessors" : [
        {
            "bufferView" : 0,
            "componentType" : 5126,
            "count" : 571,
            "max" : [
                3.1396522521972656,
                38.47626495361328,
                3.1431331634521484
            ],
            "min" : [
                -3.1407198905944824,
                -44.93195343017578,
                -3.1444621086120605
            ],
            "type" : "VEC3"
        },
        {
            "bufferView" : 1,
            "componentType" : 5126,
            "count" : 571,
            "type" : "VEC3"
        },
        {
            "bufferView" : 2,
            "componentType" : 5123,
            "count" : 3414,
            "type" : "SCALAR"
        }
    ],
    "bufferViews" : [
        {
            "buffer" : 0,
            "byteLength" : 6852,
            "byteOffset" : 0
        },
        {
            "buffer" : 0,
            "byteLength" : 6852,
            "byteOffset" : 6852
        },
        {
            "buffer" : 0,
            "byteLength" : 6828,
            "byteOffset" : 13704
        }
    ],
    "buffers" : [
        {
            "byteLength" : 20532,
            "uri" : "data:application/octet-stream;base64,"
        }
    ]
}
